<svg xmlns="http://www.w3.org/2000/svg" viewBox="0 0 369.94 401.23"><title>404</title><g style="isolation:isolate"><g id="OBJECTS"><path d="M87,126c23.68-54.17,79.64-28.8,123.81-34.49S333.5,29,378,53s64.27,85,48,134c-15.67,47.21-40.5,74.8-11,124.34s1.5,99.79-36,112.29-70.36-30.74-99.45-25.34-96.55,50.82-129.11,50C119.8,447.57,96,434.5,92.5,393s22-72.1,22-116.8S54,201.49,87,126Z" transform="translate(-66.61 -47.12)" style="fill:#7a97c1;opacity:0.5;mix-blend-mode:soft-light"/><path d="M184.93,81c41.63-1.56,62.78,10.47,95.09,10.57s108.31-.84,117.65,34S370.33,189.34,369,234.17s57.65,58.34,57,90.24c-.67,32.71-35.78,69.09-95.62,72.59s-75.45,27.19-105.71,38.5c-32,12-98.84-15.31-100.17-60.38s24.25-72.7,24.16-103-77-35.94-78.18-82.1C69,132.15,131.5,83,184.93,81Z" transform="translate(-66.61 -47.12)" style="fill:#abc3dd;opacity:0.30000000000000004;mix-blend-mode:soft-light"/><rect x="202.05" y="173.72" width="108.89" height="122.56" rx="8.13" transform="translate(23.24 -117.48) rotate(18.88)" style="fill:#72a7d3"/><rect x="216.28" y="178.63" width="82.67" height="106.17" transform="translate(22.24 -118.02) rotate(18.88)" style="fill:#e8f4fc"/><path d="M234.87,170.49c6.82,6.83,17.8,11.81,33,17,17.84,6.1,30.9,8.87,41.32,5.74l-73.49-25.13Z" transform="translate(-66.61 -47.12)" style="fill:#a1c2e2"/><path d="M287.33,256.94l-68.66-23.49c-9.34-3.19-12,5.7-15.75,16.54h0c-3.71,10.85-7,19.53,2.32,22.73L273.9,296.2c9.34,3.2,12-5.7,15.75-16.54h0C293.36,268.82,296.67,260.13,287.33,256.94Z" transform="translate(-66.61 -47.12)" style="fill:#e8f4fc"/><rect x="194.32" y="271.58" width="30.67" height="39.91" transform="translate(39.02 -99.28) rotate(18.88)" style="fill:#e8f4fc"/><rect x="187.39" y="310.34" width="30.67" height="2.92" transform="matrix(0.95, 0.32, -0.32, 0.95, 45.2, -95.94)" style="fill:#4061bf"/><polygon points="135.66 313.36 106.65 303.44 118.92 260.34 152.04 271.67 135.66 313.36" style="fill:#e8f4fc"/><path d="M165.21,347.81s1.27-20.18,13.6-13.5,18.26,24.39,18.26,24.39Z" transform="translate(-66.61 -47.12)" style="fill:#a1c2e2"/><rect x="163.69" y="354.07" width="39.17" height="2.92" transform="translate(58.31 -87.3) rotate(18.88)" style="fill:#4061bf"/><path d="M198.65,359.24l3.62,1.24,2.89-7.36C200.26,353.36,198.65,359.24,198.65,359.24Z" transform="translate(-66.61 -47.12)" style="fill:#a1c2e2"/><rect x="243.56" y="288.42" width="30.67" height="39.91" transform="translate(337.44 636.83) rotate(-161.12)" style="fill:#e8f4fc"/><rect x="236.63" y="327.18" width="30.67" height="2.92" transform="translate(317.4 674.02) rotate(-161.12)" style="fill:#4061bf"/><polygon points="140.2 105.96 122.71 131.6 155.01 148.24 169.05 120.98 140.2 105.96" style="fill:#e8f4fc"/><polygon points="112.22 77.85 90.65 99.64 117.48 128.91 141.76 104.39 112.22 77.85" style="fill:none;stroke:#231f20;stroke-miterlimit:10"/><polygon points="112.22 77.85 90.65 99.64 117.48 128.91 141.76 104.39 112.22 77.85" style="fill:#e8f4fc"/><rect x="151.68" y="134.8" width="31.83" height="1.25" transform="translate(-113.16 112.1) rotate(-45.28)" style="fill:#4061bf"/><path d="M154.51,107.16H161a9.87,9.87,0,0,1,9.87,9.87v22.79a0,0,0,0,1,0,0H140.22a0,0,0,0,1,0,0V121.45A14.29,14.29,0,0,1,154.51,107.16Z" transform="translate(-108.26 100) rotate(-45.28)" style="fill:#e8f4fc"/><polygon points="155.89 320.28 184.9 330.2 201.59 288.62 168.48 277.29 155.89 320.28" style="fill:#e8f4fc"/><path d="M259.56,380.07s11.35-16.72-2.49-19-29.37,8.1-29.37,8.1Z" transform="translate(-66.61 -47.12)" style="fill:#a1c2e2"/><rect x="220.97" y="373.66" width="39.17" height="2.92" transform="translate(280.16 760.78) rotate(-161.12)" style="fill:#4061bf"/><path d="M226.12,368.64l-3.62-1.24,2.22-7.59C228.45,363,226.12,368.64,226.12,368.64Z" transform="translate(-66.61 -47.12)" style="fill:#a1c2e2"/><path d="M177.55,124.49l3-9.22a4.5,4.5,0,0,0-8.56-2.79l-2.28,7c-3.23-.06-6.84.84-9.15,4.4-5.06,7.77,4.54,13.17,4.54,13.17Z" transform="translate(-66.61 -47.12)" style="fill:#a1c2e2"/><polygon points="245.77 231.83 275.69 225.11 268.88 185.99 235.21 193.55 245.77 231.83" style="fill:#e8f4fc"/><rect x="311.56" y="275.57" width="31.83" height="1.25" transform="translate(640.88 426.87) rotate(167.35)" style="fill:#4061bf"/><path d="M346.6,291.38l-4-17.93-21,4.72h0l-8.93,2,0,.13L307,290.89a4.5,4.5,0,1,0,7.95,4.23l.72-1.35,1.93,8.64a9.88,9.88,0,0,0,11.8,7.47l6.34-1.43A14.29,14.29,0,0,0,346.6,291.38Z" transform="translate(-66.61 -47.12)" style="fill:#e8f4fc"/><path d="M332.14,233.86a7.22,7.22,0,0,0-1.76-5.7l-26.39,12Z" transform="translate(-66.61 -47.12)" style="fill:#4061bf"/><polygon points="250.73 152.42 233.87 189.38 235.86 193.75 263.77 181.05 250.73 152.42" style="fill:#e8f4fc"/><path d="M313.9,194.86c2.07.27,3.56,3.1,3.44,4.67l-16.86,37-.69-.38Z" transform="translate(-66.61 -47.12)" style="fill:#4061bf"/><path d="M221.62,195.36a7.8,7.8,0,0,0,4.11,1.84l9.93-29.1Z" transform="translate(-66.61 -47.12)" style="fill:#4061bf"/><path d="M184.93,175.18h0a8.42,8.42,0,0,0,4.39,3.54l17.49-25.64Z" transform="translate(-66.61 -47.12)" style="fill:#4061bf"/><rect x="233.71" y="206.92" width="54" height="31.46" transform="translate(19.47 -119.51) rotate(18.88)" style="fill:#4061bf"/><rect x="235.3" y="208.31" width="50.83" height="28.67" transform="translate(19.47 -119.51) rotate(18.88)" style="fill:#bababa"/><path d="M248.56,210.56a2.5,2.5,0,1,1-1.56-3.18A2.51,2.51,0,0,1,248.56,210.56Z" transform="translate(-66.61 -47.12)" style="fill:#e52c2c"/><path d="M243.7,224.75a2.5,2.5,0,1,1-1.55-3.17A2.49,2.49,0,0,1,243.7,224.75Z" transform="translate(-66.61 -47.12)" style="fill:#2ac461"/><path d="M246.13,217.66a2.5,2.5,0,1,1-1.56-3.18A2.5,2.5,0,0,1,246.13,217.66Z" transform="translate(-66.61 -47.12)" style="fill:#f9f44b"/><rect x="250.28" y="215.37" width="18.5" height="13.74" transform="translate(19.28 -119.15) rotate(18.88)" style="fill:#4475e2"/><rect x="274.48" y="217.84" width="10.04" height="2.37" transform="translate(19.31 -125.78) rotate(18.88)" style="fill:#3f3f3f"/><rect x="272.94" y="222.34" width="10.04" height="2.37" transform="translate(20.69 -125.04) rotate(18.88)" style="fill:#3f3f3f"/><rect x="271.4" y="226.83" width="10.04" height="2.37" transform="translate(22.06 -124.31) rotate(18.88)" style="fill:#3f3f3f"/><rect x="269.87" y="231.32" width="10.04" height="2.37" transform="translate(23.43 -123.57) rotate(18.88)" style="fill:#3f3f3f"/><rect x="268.33" y="235.81" width="10.04" height="2.37" transform="translate(24.8 -122.83) rotate(18.88)" style="fill:#3f3f3f"/><path d="M219,215.11l14.11,4.83-1.29,3.78-14.11-4.83a2,2,0,0,1-1.25-2.54h0A2,2,0,0,1,219,215.11Z" transform="translate(-66.61 -47.12)" style="fill:#a1c2e2"/><path d="M224.41,199.26l14.11,4.83-1.29,3.78-14.11-4.82a2,2,0,0,1-1.25-2.54h0A2,2,0,0,1,224.41,199.26Z" transform="translate(-66.61 -47.12)" style="fill:#a1c2e2"/><path d="M302.44,230.18l-14.12-4.83,1.3-3.79,14.11,4.83a2,2,0,0,1,1.25,2.54h0A2,2,0,0,1,302.44,230.18Z" transform="translate(-66.61 -47.12)" style="fill:#a1c2e2"/><path d="M297,246,282.9,241.2l1.3-3.79,14.11,4.83a2,2,0,0,1,1.25,2.54h0A2,2,0,0,1,297,246Z" transform="translate(-66.61 -47.12)" style="fill:#a1c2e2"/><path d="M200.84,269.92h0L222,281l-22.76-15.4A7.49,7.49,0,0,0,200.84,269.92Z" transform="translate(-66.61 -47.12)" style="fill:#a1c2e2"/><path d="M283,294.26l-26.95-1.61,23,4h0A7.49,7.49,0,0,0,283,294.26Z" transform="translate(-66.61 -47.12)" style="fill:#a1c2e2"/><polygon points="122.71 131.6 156.93 144.5 155.01 148.24 122.71 131.6" style="fill:#a1c2e2"/><polygon points="235.95 184.82 237.38 193.06 235.86 193.75 233.87 189.38 235.95 184.82" style="fill:#a1c2e2"/><polygon points="90.65 99.64 119.77 126.72 117.48 128.91 90.65 99.64" style="fill:#a1c2e2"/><polygon points="235.21 193.55 238.65 192.78 245.77 231.83 235.21 193.55" style="fill:#a1c2e2"/><polygon points="130.4 234.06 125.01 259.34 122.07 258.34 130.4 234.06" style="fill:#a1c2e2"/><polygon points="179.18 252.19 174.69 276.33 171.31 275.18 179.18 252.19" style="fill:#a1c2e2"/><circle cx="291.39" cy="132.94" r="55.74" transform="translate(-75.27 197.87) rotate(-45)" style="fill:#e8f4fc"/><path d="M246.77,121.83c12-35.2,41.64-44.66,70.77-34.7a67.54,67.54,0,0,1,17,8.52A62.63,62.63,0,0,0,309.43,80.2c-29.13-10-58.74-.49-70.77,34.7-11.16,32.62-8.54,48,8.24,59C237.73,163.27,237.75,148.18,246.77,121.83Z" transform="translate(-66.61 -47.12)" style="fill:#a1c2e2"/><ellipse cx="290.12" cy="136.66" rx="43.63" ry="53.37" transform="translate(0.32 319.82) rotate(-71.12)" style="fill:#bababa"/><ellipse cx="290.12" cy="136.66" rx="42.5" ry="51.99" transform="translate(0.32 319.82) rotate(-71.12)" style="fill:#2d2d2d"/><path d="M286.24,170.16c-41.59-18.58-42.43-32.49-30.14-60a38.45,38.45,0,0,1,12.65-15.77c-12.86,3.39-23.19,11.9-27.82,25.45-9.76,28.52-7.66,42.3,35.44,57,23.8,8.14,37.53,8.85,46.7,3.06C314.25,180.56,302.63,177.48,286.24,170.16Z" transform="translate(-66.61 -47.12)" style="fill:#2d2d2d;opacity:0.5;mix-blend-mode:multiply"/><path d="M238.66,114.9c.24-.7.5-1.38.75-2.06l-7.55-2.58a1.67,1.67,0,0,0-2.12.77L221.2,132a1.88,1.88,0,0,0,1.15,2.5L232.62,138A133.76,133.76,0,0,1,238.66,114.9Z" transform="translate(-66.61 -47.12)" style="fill:#bababa"/><path d="M234.66,117.69a1.81,1.81,0,1,1-1.13-2.3A1.81,1.81,0,0,1,234.66,117.69Z" transform="translate(-66.61 -47.12)" style="fill:#2d2d2d"/><path d="M232.49,129.25a3.5,3.5,0,1,1-2.18-4.44A3.5,3.5,0,0,1,232.49,129.25Z" transform="translate(-66.61 -47.12)" style="fill:#4061bf"/><path d="M231.17,128.81a2.11,2.11,0,1,1-1.31-2.68A2.1,2.1,0,0,1,231.17,128.81Z" transform="translate(-66.61 -47.12)" style="fill:#2d2d2d"/><path d="M353.54,153.37a1.68,1.68,0,0,0-1.21-1.91l-7.53-2.57c-.22.69-.43,1.39-.67,2.09a133.68,133.68,0,0,1-9.36,21.94l10.25,3.5a1.87,1.87,0,0,0,2.44-1.27Z" transform="translate(-66.61 -47.12)" style="fill:#bababa"/><path d="M345.56,155.62a1.81,1.81,0,1,0,2.3-1.13A1.81,1.81,0,0,0,345.56,155.62Z" transform="translate(-66.61 -47.12)" style="fill:#2d2d2d"/><path d="M340.2,166.1a3.5,3.5,0,1,0,4.44-2.18A3.5,3.5,0,0,0,340.2,166.1Z" transform="translate(-66.61 -47.12)" style="fill:#4061bf"/><path d="M341.51,166.54a2.11,2.11,0,1,0,2.68-1.31A2.1,2.1,0,0,0,341.51,166.54Z" transform="translate(-66.61 -47.12)" style="fill:#2d2d2d"/><path d="M315.1,116.54c2.92-3.89,12.86,3.73,16.8,10.76s4.73,13.26,1.27,14.83c-4.69,2.13-4.58-5.92-9.71-12.17C320.45,126.29,312,120.64,315.1,116.54Z" transform="translate(-66.61 -47.12)" style="fill:#aaa;mix-blend-mode:soft-light"/><path d="M366,394a85.8,85.8,0,0,0,8.71-.64,82.43,82.43,0,0,0-8.71-.64,1.23,1.23,0,0,1-1.19-1.19,82.79,82.79,0,0,0-.64-8.72,82.79,82.79,0,0,0-.64,8.72,1.22,1.22,0,0,1-1.19,1.19,82.43,82.43,0,0,0-8.71.64,85.8,85.8,0,0,0,8.71.64,1.21,1.21,0,0,1,1.19,1.19,82.74,82.74,0,0,0,.64,8.71,82.74,82.74,0,0,0,.64-8.71A1.22,1.22,0,0,1,366,394Z" transform="translate(-66.61 -47.12)" style="fill:#fff"/><path d="M427.84,306.1a86.13,86.13,0,0,0,8.71-.64,82.74,82.74,0,0,0-8.71-.64,1.22,1.22,0,0,1-1.19-1.19,85.8,85.8,0,0,0-.64-8.71,82.43,82.43,0,0,0-.64,8.71,1.23,1.23,0,0,1-1.2,1.19,82.74,82.74,0,0,0-8.71.64,86.13,86.13,0,0,0,8.71.64,1.22,1.22,0,0,1,1.2,1.19A82.74,82.74,0,0,0,426,316a86.13,86.13,0,0,0,.64-8.71A1.21,1.21,0,0,1,427.84,306.1Z" transform="translate(-66.61 -47.12)" style="fill:#fff"/><path d="M79,123.85a82.43,82.43,0,0,0,8.71-.64,85.8,85.8,0,0,0-8.71-.64,1.22,1.22,0,0,1-1.19-1.19,82.43,82.43,0,0,0-.64-8.71,82.43,82.43,0,0,0-.64,8.71,1.21,1.21,0,0,1-1.19,1.19,85.8,85.8,0,0,0-8.71.64,82.43,82.43,0,0,0,8.71.64A1.22,1.22,0,0,1,76.51,125a82.43,82.43,0,0,0,.64,8.71,82.43,82.43,0,0,0,.64-8.71A1.23,1.23,0,0,1,79,123.85Z" transform="translate(-66.61 -47.12)" style="fill:#fff"/><path d="M135.35,428.41a82.43,82.43,0,0,0,8.71-.64,85.8,85.8,0,0,0-8.71-.64,1.22,1.22,0,0,1-1.19-1.19,82.74,82.74,0,0,0-.64-8.71,86.13,86.13,0,0,0-.64,8.71,1.21,1.21,0,0,1-1.19,1.19,86.13,86.13,0,0,0-8.71.64,82.74,82.74,0,0,0,8.71.64,1.22,1.22,0,0,1,1.19,1.19,85.8,85.8,0,0,0,.64,8.71,82.43,82.43,0,0,0,.64-8.71A1.23,1.23,0,0,1,135.35,428.41Z" transform="translate(-66.61 -47.12)" style="fill:#fff"/><path d="M417.29,160.82a82.79,82.79,0,0,0,8.72-.64,86.18,86.18,0,0,0-8.72-.64,1.22,1.22,0,0,1-1.19-1.19,82.74,82.74,0,0,0-.64-8.71,86.13,86.13,0,0,0-.64,8.71,1.21,1.21,0,0,1-1.19,1.19,86.13,86.13,0,0,0-8.71.64,82.74,82.74,0,0,0,8.71.64,1.22,1.22,0,0,1,1.19,1.19,85.8,85.8,0,0,0,.64,8.71,82.43,82.43,0,0,0,.64-8.71A1.23,1.23,0,0,1,417.29,160.82Z" transform="translate(-66.61 -47.12)" style="fill:#fff"/><path d="M104.66,230.93a85.8,85.8,0,0,0,8.71-.64,82.43,82.43,0,0,0-8.71-.64,1.23,1.23,0,0,1-1.19-1.2,82.74,82.74,0,0,0-.64-8.71,82.74,82.74,0,0,0-.64,8.71,1.22,1.22,0,0,1-1.19,1.2,82.43,82.43,0,0,0-8.71.64,85.8,85.8,0,0,0,8.71.64,1.21,1.21,0,0,1,1.19,1.19,82.74,82.74,0,0,0,.64,8.71,82.74,82.74,0,0,0,.64-8.71A1.22,1.22,0,0,1,104.66,230.93Z" transform="translate(-66.61 -47.12)" style="fill:#fff"/><path d="M189.17,58.3a82.74,82.74,0,0,0,8.71-.64,82.74,82.74,0,0,0-8.71-.64,1.24,1.24,0,0,1-1.2-1.19,82.43,82.43,0,0,0-.64-8.71,85.8,85.8,0,0,0-.64,8.71A1.22,1.22,0,0,1,185.5,57a82.74,82.74,0,0,0-8.71.64,82.74,82.74,0,0,0,8.71.64,1.21,1.21,0,0,1,1.19,1.19,85.8,85.8,0,0,0,.64,8.71,82.43,82.43,0,0,0,.64-8.71A1.23,1.23,0,0,1,189.17,58.3Z" transform="translate(-66.61 -47.12)" style="fill:#fff"/><path d="M386.42,122.2a29.36,29.36,0,0,0,2.53,1.53,28.17,28.17,0,0,0-2.28-1.89.41.41,0,0,1-.1-.56,28.09,28.09,0,0,0,1.53-2.53,29.52,29.52,0,0,0-1.88,2.28.4.4,0,0,1-.56.09c-1.39-.93-2.53-1.53-2.53-1.53a26.16,26.16,0,0,0,2.28,1.89.42.42,0,0,1,.09.56,28.09,28.09,0,0,0-1.53,2.53,29.52,29.52,0,0,0,1.88-2.28A.41.41,0,0,1,386.42,122.2Z" transform="translate(-66.61 -47.12)" style="fill:#fff"/><path d="M211.19,81.4a28.09,28.09,0,0,0,2.53,1.53A28.17,28.17,0,0,0,211.44,81a.41.41,0,0,1-.1-.56A28.09,28.09,0,0,0,212.87,78,29.52,29.52,0,0,0,211,80.23a.41.41,0,0,1-.56.1c-1.39-.94-2.53-1.54-2.53-1.54a26.16,26.16,0,0,0,2.28,1.89.41.41,0,0,1,.09.56,28.09,28.09,0,0,0-1.53,2.53,28.5,28.5,0,0,0,1.89-2.28A.4.4,0,0,1,211.19,81.4Z" transform="translate(-66.61 -47.12)" style="fill:#fff"/><path d="M106.12,187.57c1.39.94,2.53,1.54,2.53,1.54a28.17,28.17,0,0,0-2.28-1.89.4.4,0,0,1-.09-.56c.93-1.39,1.53-2.53,1.53-2.53a26.16,26.16,0,0,0-1.89,2.28.41.41,0,0,1-.56.09,28.09,28.09,0,0,0-2.53-1.53,28.17,28.17,0,0,0,2.28,1.89.4.4,0,0,1,.09.56c-.93,1.39-1.53,2.53-1.53,2.53a28.17,28.17,0,0,0,1.89-2.28A.41.41,0,0,1,106.12,187.57Z" transform="translate(-66.61 -47.12)" style="fill:#fff"/><path d="M156.34,223.18a26.54,26.54,0,0,0,2.53,1.53,29.52,29.52,0,0,0-2.28-1.88.42.42,0,0,1-.1-.57,26.54,26.54,0,0,0,1.53-2.53,29.52,29.52,0,0,0-1.88,2.28.41.41,0,0,1-.56.1,28.09,28.09,0,0,0-2.53-1.53,28.09,28.09,0,0,0,2.27,1.88.41.41,0,0,1,.1.56,28.09,28.09,0,0,0-1.53,2.53,27.32,27.32,0,0,0,1.88-2.28A.43.43,0,0,1,156.34,223.18Z" transform="translate(-66.61 -47.12)" style="fill:#fff"/><path d="M125.42,375.27A26.54,26.54,0,0,0,128,376.8a29.52,29.52,0,0,0-2.28-1.88.41.41,0,0,1-.1-.56,28.09,28.09,0,0,0,1.53-2.53,27.32,27.32,0,0,0-1.88,2.28.41.41,0,0,1-.56.09,28.09,28.09,0,0,0-2.53-1.53,29.35,29.35,0,0,0,2.27,1.89.41.41,0,0,1,.1.56,28.09,28.09,0,0,0-1.53,2.53,29.52,29.52,0,0,0,1.88-2.28A.42.42,0,0,1,125.42,375.27Z" transform="translate(-66.61 -47.12)" style="fill:#fff"/><path d="M378,338.43a28.09,28.09,0,0,0,2.53,1.53,28.5,28.5,0,0,0-2.28-1.89.41.41,0,0,1-.09-.56,28.09,28.09,0,0,0,1.53-2.53s-.88.94-1.89,2.28a.41.41,0,0,1-.56.1,28.09,28.09,0,0,0-2.53-1.53,29.52,29.52,0,0,0,2.28,1.88.41.41,0,0,1,.1.56,28.09,28.09,0,0,0-1.53,2.53,27.32,27.32,0,0,0,1.88-2.28A.41.41,0,0,1,378,338.43Z" transform="translate(-66.61 -47.12)" style="fill:#fff"/><path d="M415.84,279.48a28.09,28.09,0,0,0,2.53,1.53,28.09,28.09,0,0,0-2.27-1.88.41.41,0,0,1-.1-.56,28.09,28.09,0,0,0,1.53-2.53,27.32,27.32,0,0,0-1.88,2.28.43.43,0,0,1-.57.09,26.54,26.54,0,0,0-2.53-1.53,29.52,29.52,0,0,0,2.28,1.88.42.42,0,0,1,.1.57,26.54,26.54,0,0,0-1.53,2.53,29.52,29.52,0,0,0,1.88-2.28A.41.41,0,0,1,415.84,279.48Z" transform="translate(-66.61 -47.12)" style="fill:#fff"/></g></g></svg>