<svg id="Capa_2" data-name="Capa 2" xmlns="http://www.w3.org/2000/svg" viewBox="0 0 1306.1 1295.46"><title>Logo CIJ-orange</title><path d="M1326,513.66c-5.74,1.66-14.07,4.25-24.37,8a528.83,528.83,0,0,0-80.76,37.24c-63.27,35.84-139,95.75-188.77,192-36.21,70-66.31,158-99.46,240.61s-69.34,159.92-117.88,208.62c-32.35,32.47-70.25,52.22-116.32,52.21a170.6,170.6,0,0,1-18.13-1c-45.42-4.88-81-17.16-110.52-37.11s-52.92-47.58-74-83.07c-42.23-71-75.35-173.53-129.88-309.84C313.1,689.4,232,612.55,162.37,568.35,93.09,524.36,35.2,512.73,28,511.42v744.23a85,85,0,0,0,84.82,84.81H1249.29a85,85,0,0,0,84.81-84.81V511.47l-1.48.37C1331.12,512.23,1328.89,512.83,1326,513.66Z" transform="translate(-28 -45)" style="fill:#fe4918"/><path d="M381.73,706.42c35.94,77.87,57.64,155.89,81.73,223.31s50.58,124.2,95.95,159.68c30.25,23.66,68.9,37.91,121,39.58,2.8.08,5.57.13,8.3.13,50,0,87.1-14.83,116.41-40.16s50.77-61.22,69.2-103.34c36.85-84.24,61.5-193.37,112.72-292.53,101.73-196.91,337.31-341.28,347.06-347.21V129.82A85,85,0,0,0,1249.29,45H112.82A85,85,0,0,0,28,129.82V345.69c4.94,3,67.32,40.71,140.75,102.38C245.26,512.32,333.78,602.53,381.73,706.42Zm300-418c115.69,0,209.48,93.79,209.48,209.48S797.41,707.36,681.72,707.36,472.23,613.57,472.23,497.88,566,288.4,681.72,288.4Z" transform="translate(-28 -45)" style="fill:#fe4918"/></svg>